<svg xmlns="http://www.w3.org/2000/svg" version="1.1" xmlns:xlink="http://www.w3.org/1999/xlink" xmlns:svgjs="http://svgjs.dev/svgjs" width="2000" height="671" viewBox="0 0 2000 671"><g transform="matrix(1,0,0,1,-1.2121212121213603,0.7136696284112531)"><svg viewBox="0 0 396 133" data-background-color="#000000" preserveAspectRatio="xMidYMid meet" height="671" width="2000" xmlns="http://www.w3.org/2000/svg" xmlns:xlink="http://www.w3.org/1999/xlink"><g id="tight-bounds" transform="matrix(1,0,0,1,0.24000000000003752,-0.1414576163616914)"><svg viewBox="0 0 395.5199999999999 133.28291523272338" height="133.28291523272338" width="395.5199999999999"><g><svg viewBox="0 0 661.8261118482143 223.02314311354283" height="133.28291523272338" width="395.5199999999999"><g transform="matrix(1,0,0,1,266.3061118482143,65.67572977841247)"><svg viewBox="0 0 395.52 91.67168355671788" height="91.67168355671788" width="395.52"><g id="textblocktransform"><svg viewBox="0 0 395.52 91.67168355671788" height="91.67168355671788" width="395.52" id="textblock"><g><svg viewBox="0 0 395.52 91.67168355671788" height="91.67168355671788" width="395.52"><g transform="matrix(1,0,0,1,0,0)"><svg width="395.52" viewBox="2.4 -34.8 153.44 35.449999999999996" height="91.67168355671788" data-palette-color="#9c7945"><g class="wordmark-text-0" data-fill-palette-color="primary" id="text-0"><path d="M21.6 0.45L21.6 0.45Q20.3 0.45 18.63-1.53 16.95-3.5 15.25-6.68 13.55-9.85 12-13.5L12-13.5Q11.8-13.95 11.58-14.43 11.35-14.9 11.35-15.4L11.35-15.4Q11.35-15.95 11.7-16.18 12.05-16.4 12.45-16.45L12.45-16.45Q15.85-17.1 18.13-19.15 20.4-21.2 20.4-24.4L20.4-24.4Q20.4-26.2 19.63-27.63 18.85-29.05 16.9-29.9 14.95-30.75 11.5-30.75L11.5-30.75 11.3-30.75 8 0.4 3.95 0.4Q3.1 0.4 2.75-0.4 2.4-1.2 2.4-2.55L2.4-2.55Q2.4-3.55 2.55-4.8L2.55-4.8 5.75-34Q7.95-34.25 10.13-34.38 12.3-34.5 14.45-34.5L14.45-34.5Q18.1-34.5 20.95-33.5 23.8-32.5 25.43-30.4 27.05-28.3 27.05-24.95L27.05-24.95Q27.05-22.6 26.13-20.75 25.2-18.9 23.63-17.57 22.05-16.25 20.15-15.4 18.25-14.55 16.3-14.15L16.3-14.15 16.7-16.65Q18.4-13.1 20.03-10.6 21.65-8.1 22.95-6.63 24.25-5.15 24.95-4.55L24.95-4.55Q26.2-3.6 26.78-3.23 27.35-2.85 27.35-2.4L27.35-2.4Q27.35-1.95 26.73-1.48 26.1-1 25.15-0.55 24.2-0.1 23.23 0.18 22.25 0.45 21.6 0.45ZM33 0.6L33 0.6Q32.1 0.6 31.62-0.5 31.15-1.6 31.15-2.95L31.15-2.95Q31.15-4.9 31.6-9.3L31.6-9.3 34.1-34 41.8-34Q45.35-34 47.42-34.13 49.5-34.25 50.57-34.38 51.65-34.5 52.15-34.5L52.15-34.5Q52.7-34.5 52.92-34.33 53.15-34.15 53.15-33.4L53.15-33.4Q53.15-32.5 52.8-31.45 52.45-30.4 51.87-29.65 51.3-28.9 50.55-28.9L50.55-28.9Q50.05-28.9 48.9-29.05 47.75-29.2 46.3-29.4L46.3-29.4 39.8-30.25 37.55-7.95Q37.45-6.9 37.45-5.85 37.45-4.8 37.6-3.75L37.6-3.75 48.3-5.85Q49.2-6.05 49.82-6.18 50.45-6.3 50.65-6.3L50.65-6.3Q51.25-6.3 51.25-5.6L51.25-5.6Q51.25-4.35 50.82-3.05 50.4-1.75 49.65-0.88 48.9 0 47.8 0L47.8 0 46.3 0Q40.7 0 37.5 0.3 34.3 0.6 33 0.6ZM41.95-15.85L35.55-15.75 36.2-19.6 38.6-19.6Q40.75-19.6 42.65-19.75 44.55-19.9 45.85-20.05 47.15-20.2 47.5-20.2L47.5-20.2Q47.9-20.2 48.1-19.98 48.3-19.75 48.3-19.35L48.3-19.35Q48.3-18.6 47.3-17.8 46.3-17 44.82-16.45 43.35-15.9 41.95-15.85L41.95-15.85ZM55.95 0.65L55.95 0.65Q54.15 0.65 53.27-0.73 52.4-2.1 52.4-4.15L52.4-4.15Q52.4-5 52.7-5.6 53-6.2 53.75-6.2L53.75-6.2Q54.5-6.2 55.3-5.95 56.1-5.7 57.2-5.7L57.2-5.7Q57.7-5.7 58.62-6.33 59.55-6.95 60.85-8.4 62.15-9.85 63.77-12.2 65.4-14.55 67.35-18L67.35-18 68.2-18.75Q70.5-22.95 72.42-25.98 74.35-29 76.1-30.93 77.85-32.85 79.62-33.77 81.4-34.7 83.35-34.7L83.35-34.7Q84.55-34.7 85.12-34.02 85.7-33.35 85.7-32.3L85.7-32.3Q85.7-31 85.27-29.9 84.85-28.8 84.22-28.13 83.6-27.45 83.05-27.45L83.05-27.45Q82.55-27.45 82.05-27.65 81.55-27.85 80.65-27.85L80.65-27.85Q79.6-27.85 76.9-25 74.2-22.15 70.95-16.05L70.95-16.05 69.95-15.3Q68.55-12.4 67.05-9.55 65.55-6.7 63.85-4.4 62.15-2.1 60.22-0.73 58.3 0.65 55.95 0.65ZM77.95 0.4L77.95 0.4Q76.35 0.4 75.05-0.93 73.75-2.25 72.22-5.33 70.7-8.4 68.35-13.6L68.35-13.6 67.55-15.3Q64.05-22.55 61.65-26.25 59.25-29.95 57-30.65L57-30.65Q56.25-30.9 55.92-31.1 55.6-31.3 55.6-31.8L55.6-31.8Q55.6-32.65 56.62-33.33 57.65-34 58.97-34.4 60.3-34.8 61.15-34.8L61.15-34.8Q62.25-34.8 63.27-34.23 64.3-33.65 65.42-32.15 66.55-30.65 67.87-27.93 69.2-25.2 70.9-20.95L70.9-20.95 71.5-19.75Q73.25-16.2 74.67-13.63 76.1-11.05 77.3-9.3 78.5-7.55 79.45-6.45 80.4-5.35 81.1-4.75L81.1-4.75Q81.6-4.35 82.1-3.95 82.6-3.55 82.95-3.18 83.3-2.8 83.3-2.45L83.3-2.45Q83.3-2 82.72-1.53 82.15-1.05 81.27-0.6 80.4-0.15 79.5 0.13 78.6 0.4 77.95 0.4ZM92.74 0.4L89.24 0.4Q88.54 0.4 88.12-0.2 87.69-0.8 87.49-1.75 87.29-2.7 87.29-3.65L87.29-3.65Q87.29-5.7 87.54-7.6 87.79-9.5 87.99-11.7L87.99-11.7 90.39-34.75 93.89-34.75Q95.19-34.75 95.62-33.77 96.04-32.8 96.04-31.45L96.04-31.45Q96.04-30.25 95.94-29.3 95.84-28.35 95.67-27 95.49-25.65 95.24-23.3L95.24-23.3 92.74 0.4ZM105.49 0.4L101.44 0.4Q100.59 0.4 100.24-0.4 99.89-1.2 99.89-2.55L99.89-2.55Q99.89-3.55 100.04-4.8L100.04-4.8 103.19-34 112.49-34Q118.64-34 121.69-31.95 124.74-29.9 124.74-25.15L124.74-25.15Q124.74-22.25 123.42-19.85 122.09-17.45 120.02-15.7 117.94-13.95 115.59-13 113.24-12.05 111.19-12.05L111.19-12.05Q110.64-12.05 109.97-12.4 109.29-12.75 108.82-13.3 108.34-13.85 108.34-14.4L108.34-14.4Q108.34-14.95 108.69-15.18 109.04-15.4 109.44-15.45L109.44-15.45Q111.69-15.9 113.67-17.03 115.64-18.15 116.87-20.03 118.09-21.9 118.09-24.5L118.09-24.5Q118.09-26.75 117.02-28 115.94-29.25 113.89-29.75 111.84-30.25 108.79-30.25L108.79-30.25 105.49 0.4ZM141.74-13.05L137.49-13.05 132.99-23.75Q131.99-26.15 131.16-27.68 130.34-29.2 129.34-30L129.34-30Q128.09-31 127.69-31.45 127.29-31.9 127.29-32.4L127.29-32.4Q127.29-32.85 128.14-33.38 128.99-33.9 130.09-34.3 131.19-34.7 131.94-34.7L131.94-34.7Q133.99-34.7 135.36-33.02 136.74-31.35 137.74-28.5L137.74-28.5 141.44-18.1 139.94-17 144.94-24.7Q146.34-26.8 146.66-28.35 146.99-29.9 147.09-30.95L147.09-30.95Q147.19-31.85 148.19-32.52 149.19-33.2 150.54-33.7 151.89-34.2 153.11-34.45 154.34-34.7 154.94-34.7L154.94-34.7Q155.84-34.7 155.84-33.9L155.84-33.9Q155.84-33.4 155.44-32.65 155.04-31.9 154.34-30.95L154.34-30.95 141.74-13.05ZM141.29 0.4L137.24 0.4Q136.34 0.4 135.99-0.4 135.64-1.2 135.64-2.55L135.64-2.55Q135.64-3.55 135.79-4.8L135.79-4.8 137.14-16.95 143.09-16.05 141.29 0.4Z" fill="#9c7945" data-fill-palette-color="primary"></path></g></svg></g></svg></g></svg></g></svg></g><g><svg viewBox="0 0 223.02314311354283 223.02314311354283" height="223.02314311354283" width="223.02314311354283"><g><svg></svg></g><g id="icon-0"><svg viewBox="0 0 223.02314311354283 223.02314311354283" height="223.02314311354283" width="223.02314311354283"><g></g><g transform="matrix(1,0,0,1,61.71171277196827,47.148621751856695)"><svg viewBox="0 0 99.59971756960628 128.72589960982944" height="128.72589960982944" width="99.59971756960628"><g><svg xmlns="http://www.w3.org/2000/svg" xmlns:xlink="http://www.w3.org/1999/xlink" version="1.1" x="0" y="0" viewBox="11.452907485383136 0.18319745593316278 77.09324248441663 99.63780254406683" enable-background="new 0 0 100 100" xml:space="preserve" height="128.72589960982944" width="99.59971756960628" class="icon-cg-0" data-fill-palette-color="quaternary" id="cg-0"><path d="M82.511 27.412c-0.153-0.45-0.335-0.918-0.542-1.396-0.309-1.83-1.747-5.274-1.766-5.313l-0.298-0.659c-0.651-1.429-1.391-3.047-1.525-4.437-0.104-1.073 1.284-6.627 1.951-9.297 1.232-4.926 1.362-5.439-0.14-5.982-0.063-0.023-0.339-0.117-0.695-0.087-0.002 0-0.006-0.001-0.009-0.002-1.432-0.309-2.96 0.686-5.537 2.471-0.451 0.312-1.042 0.721-1.599 1.081 0.194-0.91 0.166-2.092-0.995-3.021-1.473-1.179-3.561 0.025-6.72 1.851-0.885 0.512-2.206 1.277-3.088 1.671-0.698-1.148-1.984-2.393-4.411-1.901-1.373 0.278-2.967 1.482-5.24 3.29-0.594 0.472-1.365 1.083-2.006 1.543-0.01-0.414-0.058-0.866-0.225-1.31-0.799-2.107-2.104-2.776-3.059-2.966-3.087-0.618-6.411 2.896-9.074 5.721-0.167 0.178-0.341 0.361-0.512 0.541-0.771-1.276-1.738-2.592-3.159-2.841-1.37-0.249-7.019 1.107-12.253 5.707-4.985 4.38-10.784 12.835-10.101 28.248 0.189 4.247 2.483 41.865 24.748 55.107 4.921 2.929 10.396 4.39 16.39 4.39 7.176 0 15.095-2.097 23.695-6.287C99.438 82.278 82.694 27.953 82.511 27.412zM74.902 90.58c-14.725 7.176-27.163 7.86-36.969 2.026C17.15 80.245 14.969 44.241 14.789 40.177c-0.458-10.333 2.045-18.458 7.441-24.148 4.628-4.88 9.882-6.251 11.043-6.399 0.393 0.325 1.019 1.403 1.331 1.942 0.274 0.472 0.511 0.881 0.757 1.21 0.526 0.703 1.515 0.868 2.241 0.371 0.604-0.413 1.324-1.176 2.319-2.233 1.294-1.372 4.726-5.016 6.044-4.754 0.19 0.039 0.432 0.387 0.624 0.891 0.027 0.109 0.021 0.439 0.016 0.656-0.017 0.818-0.049 2.342 1.308 3.141 1.58 0.931 3.349-0.477 6.025-2.604 1.178-0.935 3.147-2.5 3.851-2.642 0.6-0.123 0.779-0.16 1.327 1.18 0.203 0.495 0.633 0.86 1.155 0.979 1.377 0.316 3.096-0.622 6.008-2.305 0.714-0.414 1.725-0.997 2.535-1.404-0.262 0.765-0.496 1.825 0.147 2.846 0.317 0.499 0.812 0.84 1.398 0.959 1.408 0.289 2.915-0.695 5.456-2.454 0.459-0.318 1.062-0.735 1.631-1.101-0.099 0.398-0.201 0.809-0.302 1.206-1.284 5.138-2.182 8.893-2.034 10.411 0.077 0.792 0.268 1.578 0.518 2.342-1.675-1.002-3.583-1.524-5.677-1.222-1.18 0.17-2.325 0.668-3.379 1.452-1.541-1.364-3.285-2.314-5.158-2.481-4.594-0.411-10.566-0.412-14.952 1.486-1.987-1.58-4.941-1.796-8.208-0.576-5.852 2.186-9.76 5.959-11.616 11.216-4.686 13.274 5.215 32.351 9.747 40.022-0.164 1.434-0.124 2.876 0.167 4.269 0.791 3.781 4.143 10.188 17.713 10.63 16.722 0.545 22.231-6.685 22.858-11.04 0.339-2.355-0.765-3.736-2.013-4.06-1.087-0.281-4.48-0.328-12.545-0.372-7.308-0.041-19.064-0.107-22.618-0.773 1-3.952 3.772-7.497 6.152-8.631 1.762-0.844 2.623-0.134 3.116 0.473 0.646 0.792 1.375 0.934 1.863 0.939 1.077-0.021 1.734-0.803 2.146-1.342 0.404 0.174 0.913 0.562 1.444 0.966 1.293 0.984 3.066 2.335 5.648 2.366 1.396-0.012 2.551-0.383 3.365-1.188 1.332-1.316 1.442-3.296 1.442-5.379 0-2.181-0.385-4.188-0.757-6.127l-0.197-1.041c-0.765-4.127-1.848-8.546-3.217-13.135-0.281-0.939-0.59-1.899-0.901-2.862-0.438-1.356-0.891-2.758-1.247-4.074-0.231-0.85-0.744-3.052-1.118-4.66-0.191-0.825-0.347-1.49-0.408-1.738-0.221-0.879-1.112-1.414-1.991-1.193-0.88 0.22-1.414 1.112-1.193 1.991 0.06 0.241 0.21 0.885 0.396 1.684 0.381 1.633 0.9 3.869 1.147 4.776 0.377 1.39 0.841 2.83 1.29 4.222 0.304 0.939 0.606 1.877 0.879 2.794 1.338 4.477 2.395 8.78 3.136 12.792l0.201 1.062c0.358 1.872 0.699 3.64 0.699 5.508 0 0.901 0 2.581-0.468 3.044-0.209 0.205-0.678 0.239-1.019 0.239-1.496-0.018-2.566-0.832-3.7-1.694-1.138-0.868-2.422-1.863-4.105-1.72-0.722 0.055-1.21 0.481-1.562 0.894-1.704-1.469-3.945-1.686-6.301-0.563-2.839 1.354-5.578 4.587-7.119 8.388-4.623-8.42-11.58-23.769-7.835-34.374 1.539-4.357 4.702-7.378 9.669-9.233 0.633-0.237 2.413-0.813 3.896-0.457-2.427 2.45-5.893 8.44-5.435 12.451 0.201 1.769 1.147 3.108 2.663 3.77 2.727 1.193 6.862 0.501 8.436-2.391 0.894-1.645 1.177-4.261 0.842-7.779-0.061-0.642-0.354-3.16-1.345-5.357 3.003-1.086 7.366-1.424 12.663-0.952 0.985 0.088 2.072 0.639 3.16 1.577-0.101 0.141-0.199 0.284-0.297 0.43-2.025 3.06-2.879 7.052-2.12 9.932 0.317 1.204 1.155 2.146 2.425 2.726 2.276 1.041 5.57 0.713 7.439-0.207 0.839-0.411 1.736-1.451 1.249-4.067-0.438-2.36-1.95-5.873-4.165-8.749 0.525-0.341 1.066-0.557 1.606-0.634 3.628-0.533 6.886 3.368 8.464 6.87 0.006 0.017 0.014 0.033 0.021 0.05 0.19 0.426 0.356 0.847 0.494 1.253C82.27 36.925 93.027 81.749 74.902 90.58zM66.648 23.53c2.244 3.174 3.165 6.318 3.199 7.445-1.197 0.403-3.087 0.494-4.19-0.011-0.525-0.24-0.593-0.493-0.613-0.576-0.498-1.885 0.133-4.781 1.502-7.002C66.58 23.434 66.615 23.482 66.648 23.53zM46.081 31.805c-0.652 1.199-2.913 1.53-4.238 0.952-0.32-0.14-0.628-0.374-0.715-1.133-0.313-2.747 2.631-7.936 4.467-9.747 0.484 1.192 0.819 2.716 0.944 4.03C46.796 28.601 46.624 30.806 46.081 31.805zM39.57 70.049c3.103 0.547 9.463 0.748 22.979 0.823 4.6 0.025 9.753 0.055 11.355 0.212 0.026 0.468-0.139 1.45-0.95 2.659-1.315 1.952-5.758 6.445-18.579 6.037-8.518-0.276-13.568-3.049-14.608-8.021C39.649 71.195 39.586 70.624 39.57 70.049z" fill="#000000" data-fill-palette-color="quaternary"></path></svg></g></svg></g></svg></g></svg></g></svg></g><defs></defs><mask id="aca237d4-c091-495c-a59b-279475a77ca7"><g id="SvgjsG6757"><svg viewBox="0 0 395.5199999999999 133.28291523272338" height="133.28291523272338" width="395.5199999999999"><g><svg viewBox="0 0 661.8261118482143 223.02314311354283" height="133.28291523272338" width="395.5199999999999"><g transform="matrix(1,0,0,1,266.3061118482143,65.67572977841247)"><svg viewBox="0 0 395.52 91.67168355671788" height="91.67168355671788" width="395.52"><g id="SvgjsG6756"><svg viewBox="0 0 395.52 91.67168355671788" height="91.67168355671788" width="395.52" id="SvgjsSvg6755"><g><svg viewBox="0 0 395.52 91.67168355671788" height="91.67168355671788" width="395.52"><g transform="matrix(1,0,0,1,0,0)"><svg width="395.52" viewBox="2.4 -34.8 153.44 35.449999999999996" height="91.67168355671788" data-palette-color="#9c7945"><g class="wordmark-text-0" data-fill-palette-color="primary" id="SvgjsG6754"><path d="M21.6 0.45L21.6 0.45Q20.3 0.45 18.63-1.53 16.95-3.5 15.25-6.68 13.55-9.85 12-13.5L12-13.5Q11.8-13.95 11.58-14.43 11.35-14.9 11.35-15.4L11.35-15.4Q11.35-15.95 11.7-16.18 12.05-16.4 12.45-16.45L12.45-16.45Q15.85-17.1 18.13-19.15 20.4-21.2 20.4-24.4L20.4-24.4Q20.4-26.2 19.63-27.63 18.85-29.05 16.9-29.9 14.95-30.75 11.5-30.75L11.5-30.75 11.3-30.75 8 0.4 3.95 0.4Q3.1 0.4 2.75-0.4 2.4-1.2 2.4-2.55L2.4-2.55Q2.4-3.55 2.55-4.8L2.55-4.8 5.75-34Q7.95-34.25 10.13-34.38 12.3-34.5 14.45-34.5L14.45-34.5Q18.1-34.5 20.95-33.5 23.8-32.5 25.43-30.4 27.05-28.3 27.05-24.95L27.05-24.95Q27.05-22.6 26.13-20.75 25.2-18.9 23.63-17.57 22.05-16.25 20.15-15.4 18.25-14.55 16.3-14.15L16.3-14.15 16.7-16.65Q18.4-13.1 20.03-10.6 21.65-8.1 22.95-6.63 24.25-5.15 24.95-4.55L24.95-4.55Q26.2-3.6 26.78-3.23 27.35-2.85 27.35-2.4L27.35-2.4Q27.35-1.95 26.73-1.48 26.1-1 25.15-0.55 24.2-0.1 23.23 0.18 22.25 0.45 21.6 0.45ZM33 0.6L33 0.6Q32.1 0.6 31.62-0.5 31.15-1.6 31.15-2.95L31.15-2.95Q31.15-4.9 31.6-9.3L31.6-9.3 34.1-34 41.8-34Q45.35-34 47.42-34.13 49.5-34.25 50.57-34.38 51.65-34.5 52.15-34.5L52.15-34.5Q52.7-34.5 52.92-34.33 53.15-34.15 53.15-33.4L53.15-33.4Q53.15-32.5 52.8-31.45 52.45-30.4 51.87-29.65 51.3-28.9 50.55-28.9L50.55-28.9Q50.05-28.9 48.9-29.05 47.75-29.2 46.3-29.4L46.3-29.4 39.8-30.25 37.55-7.95Q37.45-6.9 37.45-5.85 37.45-4.8 37.6-3.75L37.6-3.75 48.3-5.85Q49.2-6.05 49.82-6.18 50.45-6.3 50.65-6.3L50.65-6.3Q51.25-6.3 51.25-5.6L51.25-5.6Q51.25-4.35 50.82-3.05 50.4-1.75 49.65-0.88 48.9 0 47.8 0L47.8 0 46.3 0Q40.7 0 37.5 0.3 34.3 0.6 33 0.6ZM41.95-15.85L35.55-15.75 36.2-19.6 38.6-19.6Q40.75-19.6 42.65-19.75 44.55-19.9 45.85-20.05 47.15-20.2 47.5-20.2L47.5-20.2Q47.9-20.2 48.1-19.98 48.3-19.75 48.3-19.35L48.3-19.35Q48.3-18.6 47.3-17.8 46.3-17 44.82-16.45 43.35-15.9 41.95-15.85L41.95-15.85ZM55.95 0.65L55.95 0.65Q54.15 0.65 53.27-0.73 52.4-2.1 52.4-4.15L52.4-4.15Q52.4-5 52.7-5.6 53-6.2 53.75-6.2L53.75-6.2Q54.5-6.2 55.3-5.95 56.1-5.7 57.2-5.7L57.2-5.7Q57.7-5.7 58.62-6.33 59.55-6.95 60.85-8.4 62.15-9.85 63.77-12.2 65.4-14.55 67.35-18L67.35-18 68.2-18.75Q70.5-22.95 72.42-25.98 74.35-29 76.1-30.93 77.85-32.85 79.62-33.77 81.4-34.7 83.35-34.7L83.35-34.7Q84.55-34.7 85.12-34.02 85.7-33.35 85.7-32.3L85.7-32.3Q85.7-31 85.27-29.9 84.85-28.8 84.22-28.13 83.6-27.45 83.05-27.45L83.05-27.45Q82.55-27.45 82.05-27.65 81.55-27.85 80.65-27.85L80.65-27.85Q79.6-27.85 76.9-25 74.2-22.15 70.95-16.05L70.95-16.05 69.95-15.3Q68.55-12.4 67.05-9.55 65.55-6.7 63.85-4.4 62.15-2.1 60.22-0.73 58.3 0.65 55.95 0.65ZM77.95 0.4L77.95 0.4Q76.35 0.4 75.05-0.93 73.75-2.25 72.22-5.33 70.7-8.4 68.35-13.6L68.35-13.6 67.55-15.3Q64.05-22.55 61.65-26.25 59.25-29.95 57-30.65L57-30.65Q56.25-30.9 55.92-31.1 55.6-31.3 55.6-31.8L55.6-31.8Q55.6-32.65 56.62-33.33 57.65-34 58.97-34.4 60.3-34.8 61.15-34.8L61.15-34.8Q62.25-34.8 63.27-34.23 64.3-33.65 65.42-32.15 66.55-30.65 67.87-27.93 69.2-25.2 70.9-20.95L70.9-20.95 71.5-19.75Q73.25-16.2 74.67-13.63 76.1-11.05 77.3-9.3 78.5-7.55 79.45-6.45 80.4-5.35 81.1-4.75L81.1-4.75Q81.6-4.35 82.1-3.95 82.6-3.55 82.95-3.18 83.3-2.8 83.3-2.45L83.3-2.45Q83.3-2 82.72-1.53 82.15-1.05 81.27-0.6 80.4-0.15 79.5 0.13 78.6 0.4 77.95 0.4ZM92.74 0.4L89.24 0.4Q88.54 0.4 88.12-0.2 87.69-0.8 87.49-1.75 87.29-2.7 87.29-3.65L87.29-3.65Q87.29-5.7 87.54-7.6 87.79-9.5 87.99-11.7L87.99-11.7 90.39-34.75 93.89-34.75Q95.19-34.75 95.62-33.77 96.04-32.8 96.04-31.45L96.04-31.45Q96.04-30.25 95.94-29.3 95.84-28.35 95.67-27 95.49-25.65 95.24-23.3L95.24-23.3 92.74 0.4ZM105.49 0.4L101.44 0.4Q100.59 0.4 100.24-0.4 99.89-1.2 99.89-2.55L99.89-2.55Q99.89-3.55 100.04-4.8L100.04-4.8 103.19-34 112.49-34Q118.64-34 121.69-31.95 124.74-29.9 124.74-25.15L124.74-25.15Q124.74-22.25 123.42-19.85 122.09-17.45 120.02-15.7 117.94-13.95 115.59-13 113.24-12.05 111.19-12.05L111.19-12.05Q110.64-12.05 109.97-12.4 109.29-12.75 108.82-13.3 108.34-13.85 108.34-14.4L108.34-14.4Q108.34-14.95 108.69-15.18 109.04-15.4 109.44-15.45L109.44-15.45Q111.69-15.9 113.67-17.03 115.64-18.15 116.87-20.03 118.09-21.9 118.09-24.5L118.09-24.5Q118.09-26.75 117.02-28 115.94-29.25 113.89-29.75 111.84-30.25 108.79-30.25L108.79-30.25 105.49 0.4ZM141.74-13.05L137.49-13.05 132.99-23.75Q131.99-26.15 131.16-27.68 130.34-29.2 129.34-30L129.34-30Q128.09-31 127.69-31.45 127.29-31.9 127.29-32.4L127.29-32.4Q127.29-32.85 128.14-33.38 128.99-33.9 130.09-34.3 131.19-34.7 131.94-34.7L131.94-34.7Q133.99-34.7 135.36-33.02 136.74-31.35 137.74-28.5L137.74-28.5 141.44-18.1 139.94-17 144.94-24.7Q146.34-26.8 146.66-28.35 146.99-29.9 147.09-30.95L147.09-30.95Q147.19-31.85 148.19-32.52 149.19-33.2 150.54-33.7 151.89-34.2 153.11-34.45 154.34-34.7 154.94-34.7L154.94-34.7Q155.84-34.7 155.84-33.9L155.84-33.9Q155.84-33.4 155.44-32.65 155.04-31.9 154.34-30.95L154.34-30.95 141.74-13.05ZM141.29 0.4L137.24 0.4Q136.34 0.4 135.99-0.4 135.64-1.2 135.64-2.55L135.64-2.55Q135.64-3.55 135.79-4.8L135.79-4.8 137.14-16.95 143.09-16.05 141.29 0.4Z" fill="black"></path></g></svg></g></svg></g></svg></g></svg></g><g><svg viewBox="0 0 223.02314311354283 223.02314311354283" height="223.02314311354283" width="223.02314311354283"><g><svg></svg></g><g id="SvgjsG6753"><svg viewBox="0 0 223.02314311354283 223.02314311354283" height="223.02314311354283" width="223.02314311354283"><g><path d="M0 111.512c0-61.586 49.925-111.512 111.512-111.512 61.586 0 111.512 49.925 111.511 111.512 0 61.586-49.925 111.512-111.511 111.511-61.586 0-111.512-49.925-111.512-111.511zM111.512 214.756c57.02 0 103.245-46.224 103.244-103.244 0-57.02-46.224-103.245-103.244-103.245-57.02 0-103.245 46.224-103.245 103.245 0 57.02 46.224 103.245 103.245 103.244z" fill="white" stroke="transparent"></path><ellipse rx="110.3964558412037" ry="110.3964558412037" cx="111.51157155677141" cy="111.51157155677141" fill="white" stroke="transparent" stroke-width="0" fill-opacity="1"></ellipse></g><g transform="matrix(1,0,0,1,61.71171277196827,47.148621751856695)"><svg viewBox="0 0 99.59971756960628 128.72589960982944" height="128.72589960982944" width="99.59971756960628"><g><svg xmlns="http://www.w3.org/2000/svg" xmlns:xlink="http://www.w3.org/1999/xlink" version="1.1" x="0" y="0" viewBox="11.452907485383136 0.18319745593316278 77.09324248441663 99.63780254406683" enable-background="new 0 0 100 100" xml:space="preserve" height="128.72589960982944" width="99.59971756960628" class="icon-cg-0" data-fill-palette-color="quaternary" id="SvgjsSvg6752"><path d="M82.511 27.412c-0.153-0.45-0.335-0.918-0.542-1.396-0.309-1.83-1.747-5.274-1.766-5.313l-0.298-0.659c-0.651-1.429-1.391-3.047-1.525-4.437-0.104-1.073 1.284-6.627 1.951-9.297 1.232-4.926 1.362-5.439-0.14-5.982-0.063-0.023-0.339-0.117-0.695-0.087-0.002 0-0.006-0.001-0.009-0.002-1.432-0.309-2.96 0.686-5.537 2.471-0.451 0.312-1.042 0.721-1.599 1.081 0.194-0.91 0.166-2.092-0.995-3.021-1.473-1.179-3.561 0.025-6.72 1.851-0.885 0.512-2.206 1.277-3.088 1.671-0.698-1.148-1.984-2.393-4.411-1.901-1.373 0.278-2.967 1.482-5.24 3.29-0.594 0.472-1.365 1.083-2.006 1.543-0.01-0.414-0.058-0.866-0.225-1.31-0.799-2.107-2.104-2.776-3.059-2.966-3.087-0.618-6.411 2.896-9.074 5.721-0.167 0.178-0.341 0.361-0.512 0.541-0.771-1.276-1.738-2.592-3.159-2.841-1.37-0.249-7.019 1.107-12.253 5.707-4.985 4.38-10.784 12.835-10.101 28.248 0.189 4.247 2.483 41.865 24.748 55.107 4.921 2.929 10.396 4.39 16.39 4.39 7.176 0 15.095-2.097 23.695-6.287C99.438 82.278 82.694 27.953 82.511 27.412zM74.902 90.58c-14.725 7.176-27.163 7.86-36.969 2.026C17.15 80.245 14.969 44.241 14.789 40.177c-0.458-10.333 2.045-18.458 7.441-24.148 4.628-4.88 9.882-6.251 11.043-6.399 0.393 0.325 1.019 1.403 1.331 1.942 0.274 0.472 0.511 0.881 0.757 1.21 0.526 0.703 1.515 0.868 2.241 0.371 0.604-0.413 1.324-1.176 2.319-2.233 1.294-1.372 4.726-5.016 6.044-4.754 0.19 0.039 0.432 0.387 0.624 0.891 0.027 0.109 0.021 0.439 0.016 0.656-0.017 0.818-0.049 2.342 1.308 3.141 1.58 0.931 3.349-0.477 6.025-2.604 1.178-0.935 3.147-2.5 3.851-2.642 0.6-0.123 0.779-0.16 1.327 1.18 0.203 0.495 0.633 0.86 1.155 0.979 1.377 0.316 3.096-0.622 6.008-2.305 0.714-0.414 1.725-0.997 2.535-1.404-0.262 0.765-0.496 1.825 0.147 2.846 0.317 0.499 0.812 0.84 1.398 0.959 1.408 0.289 2.915-0.695 5.456-2.454 0.459-0.318 1.062-0.735 1.631-1.101-0.099 0.398-0.201 0.809-0.302 1.206-1.284 5.138-2.182 8.893-2.034 10.411 0.077 0.792 0.268 1.578 0.518 2.342-1.675-1.002-3.583-1.524-5.677-1.222-1.18 0.17-2.325 0.668-3.379 1.452-1.541-1.364-3.285-2.314-5.158-2.481-4.594-0.411-10.566-0.412-14.952 1.486-1.987-1.58-4.941-1.796-8.208-0.576-5.852 2.186-9.76 5.959-11.616 11.216-4.686 13.274 5.215 32.351 9.747 40.022-0.164 1.434-0.124 2.876 0.167 4.269 0.791 3.781 4.143 10.188 17.713 10.63 16.722 0.545 22.231-6.685 22.858-11.04 0.339-2.355-0.765-3.736-2.013-4.06-1.087-0.281-4.48-0.328-12.545-0.372-7.308-0.041-19.064-0.107-22.618-0.773 1-3.952 3.772-7.497 6.152-8.631 1.762-0.844 2.623-0.134 3.116 0.473 0.646 0.792 1.375 0.934 1.863 0.939 1.077-0.021 1.734-0.803 2.146-1.342 0.404 0.174 0.913 0.562 1.444 0.966 1.293 0.984 3.066 2.335 5.648 2.366 1.396-0.012 2.551-0.383 3.365-1.188 1.332-1.316 1.442-3.296 1.442-5.379 0-2.181-0.385-4.188-0.757-6.127l-0.197-1.041c-0.765-4.127-1.848-8.546-3.217-13.135-0.281-0.939-0.59-1.899-0.901-2.862-0.438-1.356-0.891-2.758-1.247-4.074-0.231-0.85-0.744-3.052-1.118-4.66-0.191-0.825-0.347-1.49-0.408-1.738-0.221-0.879-1.112-1.414-1.991-1.193-0.88 0.22-1.414 1.112-1.193 1.991 0.06 0.241 0.21 0.885 0.396 1.684 0.381 1.633 0.9 3.869 1.147 4.776 0.377 1.39 0.841 2.83 1.29 4.222 0.304 0.939 0.606 1.877 0.879 2.794 1.338 4.477 2.395 8.78 3.136 12.792l0.201 1.062c0.358 1.872 0.699 3.64 0.699 5.508 0 0.901 0 2.581-0.468 3.044-0.209 0.205-0.678 0.239-1.019 0.239-1.496-0.018-2.566-0.832-3.7-1.694-1.138-0.868-2.422-1.863-4.105-1.72-0.722 0.055-1.21 0.481-1.562 0.894-1.704-1.469-3.945-1.686-6.301-0.563-2.839 1.354-5.578 4.587-7.119 8.388-4.623-8.42-11.58-23.769-7.835-34.374 1.539-4.357 4.702-7.378 9.669-9.233 0.633-0.237 2.413-0.813 3.896-0.457-2.427 2.45-5.893 8.44-5.435 12.451 0.201 1.769 1.147 3.108 2.663 3.77 2.727 1.193 6.862 0.501 8.436-2.391 0.894-1.645 1.177-4.261 0.842-7.779-0.061-0.642-0.354-3.16-1.345-5.357 3.003-1.086 7.366-1.424 12.663-0.952 0.985 0.088 2.072 0.639 3.16 1.577-0.101 0.141-0.199 0.284-0.297 0.43-2.025 3.06-2.879 7.052-2.12 9.932 0.317 1.204 1.155 2.146 2.425 2.726 2.276 1.041 5.57 0.713 7.439-0.207 0.839-0.411 1.736-1.451 1.249-4.067-0.438-2.36-1.95-5.873-4.165-8.749 0.525-0.341 1.066-0.557 1.606-0.634 3.628-0.533 6.886 3.368 8.464 6.87 0.006 0.017 0.014 0.033 0.021 0.05 0.19 0.426 0.356 0.847 0.494 1.253C82.27 36.925 93.027 81.749 74.902 90.58zM66.648 23.53c2.244 3.174 3.165 6.318 3.199 7.445-1.197 0.403-3.087 0.494-4.19-0.011-0.525-0.24-0.593-0.493-0.613-0.576-0.498-1.885 0.133-4.781 1.502-7.002C66.58 23.434 66.615 23.482 66.648 23.53zM46.081 31.805c-0.652 1.199-2.913 1.53-4.238 0.952-0.32-0.14-0.628-0.374-0.715-1.133-0.313-2.747 2.631-7.936 4.467-9.747 0.484 1.192 0.819 2.716 0.944 4.03C46.796 28.601 46.624 30.806 46.081 31.805zM39.57 70.049c3.103 0.547 9.463 0.748 22.979 0.823 4.6 0.025 9.753 0.055 11.355 0.212 0.026 0.468-0.139 1.45-0.95 2.659-1.315 1.952-5.758 6.445-18.579 6.037-8.518-0.276-13.568-3.049-14.608-8.021C39.649 71.195 39.586 70.624 39.57 70.049z" fill="black"></path></svg></g></svg></g></svg></g></svg></g></svg></g><defs><mask></mask></defs></svg><rect width="395.5199999999999" height="133.28291523272338" fill="black" stroke="none" visibility="hidden"></rect></g></mask><linearGradient x1="0.054" x2="0.941" y1="0.5" y2="0.5" id="c23b5b36-b371-4a5c-80bf-254f30e743ce"><stop stop-color="#9c7945" offset="0"></stop><stop stop-color="#faf3aa" offset="0.498"></stop><stop stop-color="#9c7945" offset="1"></stop></linearGradient><rect width="395.52" height="133.28291523272338" fill="url(#c23b5b36-b371-4a5c-80bf-254f30e743ce)" mask="url(#aca237d4-c091-495c-a59b-279475a77ca7)" data-fill-palette-color="accent"></rect></svg><rect width="395.5199999999999" height="133.28291523272338" fill="none" stroke="none" visibility="hidden"></rect></g></svg></g></svg>